  <svg
    width="80"
    height="80"
    viewBox="0 0 47 47"
    fill="none"
    xmlns="http://www.w3.org/2000/svg"
    >
    <g id="vuesax/bulk/profile-circle">
        <g id="profile-circle">
            <path
                id="Vector"
                opacity="0.4"
                d="M23.5001 43.1029C34.3157 43.1029 43.0834 34.3352 43.0834 23.5196C43.0834 12.704 34.3157 3.93625 23.5001 3.93625C12.6845 3.93625 3.91675 12.704 3.91675 23.5196C3.91675 34.3352 12.6845 43.1029 23.5001 43.1029Z"
                fill="#292D32"
            />
            <path
                id="Vector_2"
                d="M23.5 13.5908C19.4463 13.5908 16.1562 16.8808 16.1562 20.9346C16.1562 24.91 19.27 28.1413 23.4021 28.2588C23.4608 28.2588 23.5392 28.2588 23.5783 28.2588C23.6175 28.2588 23.6762 28.2588 23.7154 28.2588C23.735 28.2588 23.7546 28.2588 23.7546 28.2588C27.7104 28.1217 30.8242 24.91 30.8438 20.9346C30.8438 16.8808 27.5538 13.5908 23.5 13.5908Z"
                fill="#292D32"
            />
            <path
                id="Vector_3"
                d="M36.7774 37.9133C33.2916 41.125 28.6307 43.1029 23.4999 43.1029C18.3691 43.1029 13.7082 41.125 10.2224 37.9133C10.6924 36.1313 11.9653 34.5058 13.8257 33.2525C19.172 29.6883 27.867 29.6883 33.1741 33.2525C35.0541 34.5058 36.3074 36.1313 36.7774 37.9133Z"
                fill="#292D32"
            />
        </g>
    </g>
</svg>